<?xml version="1.0" encoding="utf-8"?>
<!-- Generator: Adobe Illustrator 24.0.1, SVG Export Plug-In . SVG Version: 6.00 Build 0)  -->
<svg version="1.1" baseProfile="basic" id="Layer_1"
	 xmlns="http://www.w3.org/2000/svg" xmlns:xlink="http://www.w3.org/1999/xlink" x="0px" y="0px" viewBox="0 0 1440 900"
	 xml:space="preserve">
<style type="text/css">
	.st0{fill:#F15A24;}
	.st1{fill:#0000FF;stroke:#F15A24;stroke-width:10;stroke-miterlimit:10;}
	.st2{fill:none;stroke:#F15A24;stroke-width:10;stroke-miterlimit:10;}
	.st3{fill:#0500FF;stroke:#F15A24;stroke-width:10;stroke-miterlimit:10;}
	.st4{fill:#0000FF;stroke:#0000FF;stroke-width:40;stroke-miterlimit:10;}
	.st5{fill:none;stroke:#F15A24;stroke-width:11;stroke-miterlimit:10;}
	.st6{fill:#000074;stroke:#0000FE;stroke-width:40;stroke-miterlimit:10;}
	.st7{fill:#0500FA;stroke:#F15A24;stroke-width:10;stroke-miterlimit:10;}
</style>
<path class="st0" d="M721.5,10.99c176.73,0,320.51,196.94,320.51,439.01S898.23,889.01,721.5,889.01S400.99,692.07,400.99,450
	S544.77,10.99,721.5,10.99 M721.5,0C538.42,0,390,201.47,390,450s148.42,450,331.5,450S1053,698.53,1053,450S904.58,0,721.5,0
	L721.5,0z"/>
<g>
	<path class="st1" d="M573.01,147.91c33.88-7.39,74.16-12.93,118.27-12.93c79.91,0,136.81,26.79,174.53,77.59
		c38.36,50.8,60.74,122.84,60.74,223.52c0,101.6-21.74,184.73-62.01,242c-40.28,58.19-106.76,89.59-190.52,89.59
		c-39.64,0-72.88-2.77-101.01-7.39V147.91z M628.63,698.41c14.06,3.69,34.52,4.62,56.26,4.62c118.91,0,183.48-96.06,183.48-264.16
		c0.64-146.86-56.9-240.15-174.53-240.15c-28.77,0-50.51,3.69-65.21,8.31V698.41z"/>
</g>
<line class="st2" x1="632.05" y1="573.19" x2="712.03" y2="571.59"/>
<line class="st2" x1="628.05" y1="431.19" x2="754.03" y2="429.59"/>
<ellipse class="st3" cx="790.75" cy="447.55" rx="40" ry="49.5"/>
<line class="st4" x1="616.5" y1="455.05" x2="766.5" y2="453.05"/>
<line class="st2" x1="624.08" y1="617.33" x2="710.07" y2="615.73"/>
<line class="st5" x1="626.75" y1="480.29" x2="757.74" y2="478.69"/>
<ellipse class="st3" cx="731" cy="590.05" rx="35" ry="46"/>
<line class="st6" x1="606" y1="595.05" x2="741" y2="593.05"/>
<ellipse class="st7" cx="736" cy="309.55" rx="40" ry="46.5"/>
<line class="st4" x1="592.75" y1="312.49" x2="727.75" y2="310.49"/>
<line class="st2" x1="623.75" y1="336.29" x2="704.75" y2="334.69"/>
<line class="st2" x1="623.25" y1="288.29" x2="705.24" y2="286.69"/>
<g>
</g>
<g>
</g>
<g>
</g>
<g>
</g>
<g>
</g>
<g>
</g>
<g>
</g>
<g>
</g>
<g>
</g>
<g>
</g>
<g>
</g>
<g>
</g>
<g>
</g>
<g>
</g>
<g>
</g>
</svg>
